<mxfile host="app.diagrams.net" modified="2024-04-16T12:53:55.853Z" agent="Mozilla/5.0 (X11; Linux x86_64; rv:124.0) Gecko/20100101 Firefox/124.0" etag="vwO86Vs22bcorZgQN-yW" version="24.2.5" type="github">
  <diagram name="Page-1" id="92caBjT1GV6ozm4gp4EN">
    <mxGraphModel dx="794" dy="1868" grid="1" gridSize="10" guides="1" tooltips="1" connect="1" arrows="1" fold="1" page="1" pageScale="1" pageWidth="827" pageHeight="1169" math="0" shadow="0">
      <root>
        <mxCell id="0" />
        <mxCell id="1" parent="0" />
        <mxCell id="VvfFfn8iIXyoxq_EFlNC-1" value="Client" style="swimlane;fontStyle=0;childLayout=stackLayout;horizontal=1;startSize=26;fillColor=none;horizontalStack=0;resizeParent=1;resizeParentMax=0;resizeLast=0;collapsible=1;marginBottom=0;whiteSpace=wrap;html=1;" vertex="1" parent="1">
          <mxGeometry x="230" y="104" width="170" height="286" as="geometry" />
        </mxCell>
        <mxCell id="VvfFfn8iIXyoxq_EFlNC-2" value="&amp;nbsp;- code: String" style="text;strokeColor=none;fillColor=none;align=left;verticalAlign=top;spacingLeft=4;spacingRight=4;overflow=hidden;rotatable=0;points=[[0,0.5],[1,0.5]];portConstraint=eastwest;whiteSpace=wrap;html=1;" vertex="1" parent="VvfFfn8iIXyoxq_EFlNC-1">
          <mxGeometry y="26" width="170" height="26" as="geometry" />
        </mxCell>
        <mxCell id="VvfFfn8iIXyoxq_EFlNC-3" value="&amp;nbsp;- nom: String" style="text;strokeColor=none;fillColor=none;align=left;verticalAlign=top;spacingLeft=4;spacingRight=4;overflow=hidden;rotatable=0;points=[[0,0.5],[1,0.5]];portConstraint=eastwest;whiteSpace=wrap;html=1;" vertex="1" parent="VvfFfn8iIXyoxq_EFlNC-1">
          <mxGeometry y="52" width="170" height="26" as="geometry" />
        </mxCell>
        <mxCell id="VvfFfn8iIXyoxq_EFlNC-4" value="&amp;nbsp;- telephone: String" style="text;strokeColor=none;fillColor=none;align=left;verticalAlign=top;spacingLeft=4;spacingRight=4;overflow=hidden;rotatable=0;points=[[0,0.5],[1,0.5]];portConstraint=eastwest;whiteSpace=wrap;html=1;" vertex="1" parent="VvfFfn8iIXyoxq_EFlNC-1">
          <mxGeometry y="78" width="170" height="26" as="geometry" />
        </mxCell>
        <mxCell id="VvfFfn8iIXyoxq_EFlNC-5" value="&amp;nbsp;- telephone_banque: String" style="text;strokeColor=none;fillColor=none;align=left;verticalAlign=top;spacingLeft=4;spacingRight=4;overflow=hidden;rotatable=0;points=[[0,0.5],[1,0.5]];portConstraint=eastwest;whiteSpace=wrap;html=1;" vertex="1" parent="VvfFfn8iIXyoxq_EFlNC-1">
          <mxGeometry y="104" width="170" height="26" as="geometry" />
        </mxCell>
        <mxCell id="VvfFfn8iIXyoxq_EFlNC-6" value="&amp;nbsp;- mail: String" style="text;strokeColor=none;fillColor=none;align=left;verticalAlign=top;spacingLeft=4;spacingRight=4;overflow=hidden;rotatable=0;points=[[0,0.5],[1,0.5]];portConstraint=eastwest;whiteSpace=wrap;html=1;" vertex="1" parent="VvfFfn8iIXyoxq_EFlNC-1">
          <mxGeometry y="130" width="170" height="26" as="geometry" />
        </mxCell>
        <mxCell id="VvfFfn8iIXyoxq_EFlNC-7" value="&amp;nbsp;- adresse: String" style="text;strokeColor=none;fillColor=none;align=left;verticalAlign=top;spacingLeft=4;spacingRight=4;overflow=hidden;rotatable=0;points=[[0,0.5],[1,0.5]];portConstraint=eastwest;whiteSpace=wrap;html=1;" vertex="1" parent="VvfFfn8iIXyoxq_EFlNC-1">
          <mxGeometry y="156" width="170" height="26" as="geometry" />
        </mxCell>
        <mxCell id="VvfFfn8iIXyoxq_EFlNC-8" value="&amp;nbsp;- CIN: String" style="text;strokeColor=none;fillColor=none;align=left;verticalAlign=top;spacingLeft=4;spacingRight=4;overflow=hidden;rotatable=0;points=[[0,0.5],[1,0.5]];portConstraint=eastwest;whiteSpace=wrap;html=1;" vertex="1" parent="VvfFfn8iIXyoxq_EFlNC-1">
          <mxGeometry y="182" width="170" height="26" as="geometry" />
        </mxCell>
        <mxCell id="VvfFfn8iIXyoxq_EFlNC-9" value="&amp;nbsp;- GPRC: String" style="text;strokeColor=none;fillColor=none;align=left;verticalAlign=top;spacingLeft=4;spacingRight=4;overflow=hidden;rotatable=0;points=[[0,0.5],[1,0.5]];portConstraint=eastwest;whiteSpace=wrap;html=1;" vertex="1" parent="VvfFfn8iIXyoxq_EFlNC-1">
          <mxGeometry y="208" width="170" height="26" as="geometry" />
        </mxCell>
        <mxCell id="VvfFfn8iIXyoxq_EFlNC-10" value="&amp;nbsp;- nature_acitivité: String" style="text;strokeColor=none;fillColor=none;align=left;verticalAlign=top;spacingLeft=4;spacingRight=4;overflow=hidden;rotatable=0;points=[[0,0.5],[1,0.5]];portConstraint=eastwest;whiteSpace=wrap;html=1;" vertex="1" parent="VvfFfn8iIXyoxq_EFlNC-1">
          <mxGeometry y="234" width="170" height="26" as="geometry" />
        </mxCell>
        <mxCell id="VvfFfn8iIXyoxq_EFlNC-11" value="&amp;nbsp;- secteur_acitivité: String" style="text;strokeColor=none;fillColor=none;align=left;verticalAlign=top;spacingLeft=4;spacingRight=4;overflow=hidden;rotatable=0;points=[[0,0.5],[1,0.5]];portConstraint=eastwest;whiteSpace=wrap;html=1;" vertex="1" parent="VvfFfn8iIXyoxq_EFlNC-1">
          <mxGeometry y="260" width="170" height="26" as="geometry" />
        </mxCell>
        <mxCell id="VvfFfn8iIXyoxq_EFlNC-12" value="Produit" style="swimlane;fontStyle=0;childLayout=stackLayout;horizontal=1;startSize=26;fillColor=none;horizontalStack=0;resizeParent=1;resizeParentMax=0;resizeLast=0;collapsible=1;marginBottom=0;whiteSpace=wrap;html=1;" vertex="1" parent="1">
          <mxGeometry x="615" y="286" width="140" height="104" as="geometry" />
        </mxCell>
        <mxCell id="VvfFfn8iIXyoxq_EFlNC-13" value="&amp;nbsp;- code: String" style="text;strokeColor=none;fillColor=none;align=left;verticalAlign=top;spacingLeft=4;spacingRight=4;overflow=hidden;rotatable=0;points=[[0,0.5],[1,0.5]];portConstraint=eastwest;whiteSpace=wrap;html=1;" vertex="1" parent="VvfFfn8iIXyoxq_EFlNC-12">
          <mxGeometry y="26" width="140" height="26" as="geometry" />
        </mxCell>
        <mxCell id="VvfFfn8iIXyoxq_EFlNC-14" value="&amp;nbsp;- nom: String" style="text;strokeColor=none;fillColor=none;align=left;verticalAlign=top;spacingLeft=4;spacingRight=4;overflow=hidden;rotatable=0;points=[[0,0.5],[1,0.5]];portConstraint=eastwest;whiteSpace=wrap;html=1;" vertex="1" parent="VvfFfn8iIXyoxq_EFlNC-12">
          <mxGeometry y="52" width="140" height="26" as="geometry" />
        </mxCell>
        <mxCell id="VvfFfn8iIXyoxq_EFlNC-15" value="&amp;nbsp;- information: String" style="text;strokeColor=none;fillColor=none;align=left;verticalAlign=top;spacingLeft=4;spacingRight=4;overflow=hidden;rotatable=0;points=[[0,0.5],[1,0.5]];portConstraint=eastwest;whiteSpace=wrap;html=1;" vertex="1" parent="VvfFfn8iIXyoxq_EFlNC-12">
          <mxGeometry y="78" width="140" height="26" as="geometry" />
        </mxCell>
        <mxCell id="VvfFfn8iIXyoxq_EFlNC-16" value="Agence" style="swimlane;fontStyle=0;childLayout=stackLayout;horizontal=1;startSize=26;fillColor=none;horizontalStack=0;resizeParent=1;resizeParentMax=0;resizeLast=0;collapsible=1;marginBottom=0;whiteSpace=wrap;html=1;" vertex="1" parent="1">
          <mxGeometry x="70" y="134" width="140" height="104" as="geometry" />
        </mxCell>
        <mxCell id="VvfFfn8iIXyoxq_EFlNC-17" value="&amp;nbsp;- code: String" style="text;strokeColor=none;fillColor=none;align=left;verticalAlign=top;spacingLeft=4;spacingRight=4;overflow=hidden;rotatable=0;points=[[0,0.5],[1,0.5]];portConstraint=eastwest;whiteSpace=wrap;html=1;" vertex="1" parent="VvfFfn8iIXyoxq_EFlNC-16">
          <mxGeometry y="26" width="140" height="26" as="geometry" />
        </mxCell>
        <mxCell id="VvfFfn8iIXyoxq_EFlNC-18" value="&amp;nbsp;- region: String" style="text;strokeColor=none;fillColor=none;align=left;verticalAlign=top;spacingLeft=4;spacingRight=4;overflow=hidden;rotatable=0;points=[[0,0.5],[1,0.5]];portConstraint=eastwest;whiteSpace=wrap;html=1;" vertex="1" parent="VvfFfn8iIXyoxq_EFlNC-16">
          <mxGeometry y="52" width="140" height="26" as="geometry" />
        </mxCell>
        <mxCell id="VvfFfn8iIXyoxq_EFlNC-19" value="&amp;nbsp;- telephone: String" style="text;strokeColor=none;fillColor=none;align=left;verticalAlign=top;spacingLeft=4;spacingRight=4;overflow=hidden;rotatable=0;points=[[0,0.5],[1,0.5]];portConstraint=eastwest;whiteSpace=wrap;html=1;" vertex="1" parent="VvfFfn8iIXyoxq_EFlNC-16">
          <mxGeometry y="78" width="140" height="26" as="geometry" />
        </mxCell>
        <mxCell id="VvfFfn8iIXyoxq_EFlNC-20" value="Utilisateur" style="swimlane;fontStyle=0;childLayout=stackLayout;horizontal=1;startSize=26;fillColor=none;horizontalStack=0;resizeParent=1;resizeParentMax=0;resizeLast=0;collapsible=1;marginBottom=0;whiteSpace=wrap;html=1;" vertex="1" parent="1">
          <mxGeometry x="270" y="560" width="140" height="156" as="geometry" />
        </mxCell>
        <mxCell id="VvfFfn8iIXyoxq_EFlNC-21" value="&amp;nbsp;- session: String" style="text;strokeColor=none;fillColor=none;align=left;verticalAlign=top;spacingLeft=4;spacingRight=4;overflow=hidden;rotatable=0;points=[[0,0.5],[1,0.5]];portConstraint=eastwest;whiteSpace=wrap;html=1;" vertex="1" parent="VvfFfn8iIXyoxq_EFlNC-20">
          <mxGeometry y="26" width="140" height="26" as="geometry" />
        </mxCell>
        <mxCell id="VvfFfn8iIXyoxq_EFlNC-22" value="&amp;nbsp;- mail: String" style="text;strokeColor=none;fillColor=none;align=left;verticalAlign=top;spacingLeft=4;spacingRight=4;overflow=hidden;rotatable=0;points=[[0,0.5],[1,0.5]];portConstraint=eastwest;whiteSpace=wrap;html=1;" vertex="1" parent="VvfFfn8iIXyoxq_EFlNC-20">
          <mxGeometry y="52" width="140" height="26" as="geometry" />
        </mxCell>
        <mxCell id="VvfFfn8iIXyoxq_EFlNC-23" value="&amp;nbsp;- status_active: Bool" style="text;strokeColor=none;fillColor=none;align=left;verticalAlign=top;spacingLeft=4;spacingRight=4;overflow=hidden;rotatable=0;points=[[0,0.5],[1,0.5]];portConstraint=eastwest;whiteSpace=wrap;html=1;" vertex="1" parent="VvfFfn8iIXyoxq_EFlNC-20">
          <mxGeometry y="78" width="140" height="26" as="geometry" />
        </mxCell>
        <mxCell id="VvfFfn8iIXyoxq_EFlNC-24" value="&amp;nbsp;- mot_de_passe: String" style="text;strokeColor=none;fillColor=none;align=left;verticalAlign=top;spacingLeft=4;spacingRight=4;overflow=hidden;rotatable=0;points=[[0,0.5],[1,0.5]];portConstraint=eastwest;whiteSpace=wrap;html=1;" vertex="1" parent="VvfFfn8iIXyoxq_EFlNC-20">
          <mxGeometry y="104" width="140" height="26" as="geometry" />
        </mxCell>
        <mxCell id="VvfFfn8iIXyoxq_EFlNC-25" value="&amp;nbsp;- adresse: String" style="text;strokeColor=none;fillColor=none;align=left;verticalAlign=top;spacingLeft=4;spacingRight=4;overflow=hidden;rotatable=0;points=[[0,0.5],[1,0.5]];portConstraint=eastwest;whiteSpace=wrap;html=1;" vertex="1" parent="VvfFfn8iIXyoxq_EFlNC-20">
          <mxGeometry y="130" width="140" height="26" as="geometry" />
        </mxCell>
        <mxCell id="VvfFfn8iIXyoxq_EFlNC-26" value="Poste" style="swimlane;fontStyle=0;childLayout=stackLayout;horizontal=1;startSize=26;fillColor=none;horizontalStack=0;resizeParent=1;resizeParentMax=0;resizeLast=0;collapsible=1;marginBottom=0;whiteSpace=wrap;html=1;" vertex="1" parent="1">
          <mxGeometry x="625" y="740" width="130" height="104" as="geometry" />
        </mxCell>
        <mxCell id="VvfFfn8iIXyoxq_EFlNC-27" value="&amp;nbsp;- id: Integer" style="text;strokeColor=none;fillColor=none;align=left;verticalAlign=top;spacingLeft=4;spacingRight=4;overflow=hidden;rotatable=0;points=[[0,0.5],[1,0.5]];portConstraint=eastwest;whiteSpace=wrap;html=1;" vertex="1" parent="VvfFfn8iIXyoxq_EFlNC-26">
          <mxGeometry y="26" width="130" height="26" as="geometry" />
        </mxCell>
        <mxCell id="VvfFfn8iIXyoxq_EFlNC-28" value="&amp;nbsp;- titre: String" style="text;strokeColor=none;fillColor=none;align=left;verticalAlign=top;spacingLeft=4;spacingRight=4;overflow=hidden;rotatable=0;points=[[0,0.5],[1,0.5]];portConstraint=eastwest;whiteSpace=wrap;html=1;" vertex="1" parent="VvfFfn8iIXyoxq_EFlNC-26">
          <mxGeometry y="52" width="130" height="26" as="geometry" />
        </mxCell>
        <mxCell id="VvfFfn8iIXyoxq_EFlNC-29" value="&amp;nbsp;- description: String" style="text;strokeColor=none;fillColor=none;align=left;verticalAlign=top;spacingLeft=4;spacingRight=4;overflow=hidden;rotatable=0;points=[[0,0.5],[1,0.5]];portConstraint=eastwest;whiteSpace=wrap;html=1;" vertex="1" parent="VvfFfn8iIXyoxq_EFlNC-26">
          <mxGeometry y="78" width="130" height="26" as="geometry" />
        </mxCell>
        <mxCell id="VvfFfn8iIXyoxq_EFlNC-30" value="Role" style="swimlane;fontStyle=0;childLayout=stackLayout;horizontal=1;startSize=26;fillColor=none;horizontalStack=0;resizeParent=1;resizeParentMax=0;resizeLast=0;collapsible=1;marginBottom=0;whiteSpace=wrap;html=1;" vertex="1" parent="1">
          <mxGeometry x="629" y="630" width="126" height="78" as="geometry" />
        </mxCell>
        <mxCell id="VvfFfn8iIXyoxq_EFlNC-31" value="&amp;nbsp;- nom: String" style="text;strokeColor=none;fillColor=none;align=left;verticalAlign=top;spacingLeft=4;spacingRight=4;overflow=hidden;rotatable=0;points=[[0,0.5],[1,0.5]];portConstraint=eastwest;whiteSpace=wrap;html=1;" vertex="1" parent="VvfFfn8iIXyoxq_EFlNC-30">
          <mxGeometry y="26" width="126" height="26" as="geometry" />
        </mxCell>
        <mxCell id="VvfFfn8iIXyoxq_EFlNC-32" value="&amp;nbsp;- description: String" style="text;strokeColor=none;fillColor=none;align=left;verticalAlign=top;spacingLeft=4;spacingRight=4;overflow=hidden;rotatable=0;points=[[0,0.5],[1,0.5]];portConstraint=eastwest;whiteSpace=wrap;html=1;" vertex="1" parent="VvfFfn8iIXyoxq_EFlNC-30">
          <mxGeometry y="52" width="126" height="26" as="geometry" />
        </mxCell>
        <mxCell id="VvfFfn8iIXyoxq_EFlNC-33" value="" style="endArrow=none;html=1;edgeStyle=orthogonalEdgeStyle;rounded=0;" edge="1" parent="1" source="VvfFfn8iIXyoxq_EFlNC-16" target="VvfFfn8iIXyoxq_EFlNC-1">
          <mxGeometry relative="1" as="geometry">
            <mxPoint x="200" y="310" as="sourcePoint" />
            <mxPoint x="360" y="310" as="targetPoint" />
            <Array as="points">
              <mxPoint x="140" y="50" />
              <mxPoint x="310" y="50" />
            </Array>
          </mxGeometry>
        </mxCell>
        <mxCell id="VvfFfn8iIXyoxq_EFlNC-34" value="1" style="edgeLabel;resizable=0;html=1;align=left;verticalAlign=bottom;" connectable="0" vertex="1" parent="VvfFfn8iIXyoxq_EFlNC-33">
          <mxGeometry x="-1" relative="1" as="geometry" />
        </mxCell>
        <mxCell id="VvfFfn8iIXyoxq_EFlNC-35" value="1..*" style="edgeLabel;resizable=0;html=1;align=right;verticalAlign=bottom;" connectable="0" vertex="1" parent="VvfFfn8iIXyoxq_EFlNC-33">
          <mxGeometry x="1" relative="1" as="geometry" />
        </mxCell>
        <mxCell id="VvfFfn8iIXyoxq_EFlNC-36" value="" style="endArrow=none;html=1;edgeStyle=orthogonalEdgeStyle;rounded=0;" edge="1" parent="1" source="VvfFfn8iIXyoxq_EFlNC-16" target="VvfFfn8iIXyoxq_EFlNC-20">
          <mxGeometry relative="1" as="geometry">
            <mxPoint x="140" y="580" as="sourcePoint" />
            <mxPoint x="300" y="580" as="targetPoint" />
            <Array as="points">
              <mxPoint x="150" y="615" />
            </Array>
          </mxGeometry>
        </mxCell>
        <mxCell id="VvfFfn8iIXyoxq_EFlNC-37" value="1..*" style="edgeLabel;resizable=0;html=1;align=left;verticalAlign=bottom;" connectable="0" vertex="1" parent="VvfFfn8iIXyoxq_EFlNC-36">
          <mxGeometry x="-1" relative="1" as="geometry">
            <mxPoint y="16" as="offset" />
          </mxGeometry>
        </mxCell>
        <mxCell id="VvfFfn8iIXyoxq_EFlNC-38" value="1..*" style="edgeLabel;resizable=0;html=1;align=right;verticalAlign=bottom;" connectable="0" vertex="1" parent="VvfFfn8iIXyoxq_EFlNC-36">
          <mxGeometry x="1" relative="1" as="geometry" />
        </mxCell>
        <mxCell id="VvfFfn8iIXyoxq_EFlNC-39" value="" style="endArrow=none;html=1;edgeStyle=orthogonalEdgeStyle;rounded=0;" edge="1" parent="1" source="VvfFfn8iIXyoxq_EFlNC-20" target="VvfFfn8iIXyoxq_EFlNC-26">
          <mxGeometry relative="1" as="geometry">
            <mxPoint x="430" y="760" as="sourcePoint" />
            <mxPoint x="590" y="760" as="targetPoint" />
            <Array as="points">
              <mxPoint x="440" y="670" />
              <mxPoint x="440" y="790" />
            </Array>
          </mxGeometry>
        </mxCell>
        <mxCell id="VvfFfn8iIXyoxq_EFlNC-40" value="0..*" style="edgeLabel;resizable=0;html=1;align=left;verticalAlign=bottom;" connectable="0" vertex="1" parent="VvfFfn8iIXyoxq_EFlNC-39">
          <mxGeometry x="-1" relative="1" as="geometry">
            <mxPoint x="4" y="20" as="offset" />
          </mxGeometry>
        </mxCell>
        <mxCell id="VvfFfn8iIXyoxq_EFlNC-41" value="1" style="edgeLabel;resizable=0;html=1;align=right;verticalAlign=bottom;" connectable="0" vertex="1" parent="VvfFfn8iIXyoxq_EFlNC-39">
          <mxGeometry x="1" relative="1" as="geometry">
            <mxPoint x="-5" as="offset" />
          </mxGeometry>
        </mxCell>
        <mxCell id="VvfFfn8iIXyoxq_EFlNC-42" value="" style="endArrow=none;html=1;edgeStyle=orthogonalEdgeStyle;rounded=0;" edge="1" parent="1" source="VvfFfn8iIXyoxq_EFlNC-20" target="VvfFfn8iIXyoxq_EFlNC-30">
          <mxGeometry relative="1" as="geometry">
            <mxPoint x="620" y="480" as="sourcePoint" />
            <mxPoint x="780" y="480" as="targetPoint" />
          </mxGeometry>
        </mxCell>
        <mxCell id="VvfFfn8iIXyoxq_EFlNC-43" value="1..*" style="edgeLabel;resizable=0;html=1;align=left;verticalAlign=bottom;" connectable="0" vertex="1" parent="VvfFfn8iIXyoxq_EFlNC-42">
          <mxGeometry x="-1" relative="1" as="geometry" />
        </mxCell>
        <mxCell id="VvfFfn8iIXyoxq_EFlNC-44" value="1" style="edgeLabel;resizable=0;html=1;align=right;verticalAlign=bottom;" connectable="0" vertex="1" parent="VvfFfn8iIXyoxq_EFlNC-42">
          <mxGeometry x="1" relative="1" as="geometry" />
        </mxCell>
        <mxCell id="VvfFfn8iIXyoxq_EFlNC-45" value="" style="endArrow=none;html=1;edgeStyle=orthogonalEdgeStyle;rounded=0;" edge="1" parent="1" source="VvfFfn8iIXyoxq_EFlNC-1" target="VvfFfn8iIXyoxq_EFlNC-12">
          <mxGeometry relative="1" as="geometry">
            <mxPoint x="470" y="340" as="sourcePoint" />
            <mxPoint x="630" y="340" as="targetPoint" />
            <Array as="points">
              <mxPoint x="510" y="310" />
              <mxPoint x="510" y="310" />
            </Array>
          </mxGeometry>
        </mxCell>
        <mxCell id="VvfFfn8iIXyoxq_EFlNC-46" value="1..*" style="edgeLabel;resizable=0;html=1;align=left;verticalAlign=bottom;" connectable="0" vertex="1" parent="VvfFfn8iIXyoxq_EFlNC-45">
          <mxGeometry x="-1" relative="1" as="geometry">
            <mxPoint x="5" as="offset" />
          </mxGeometry>
        </mxCell>
        <mxCell id="VvfFfn8iIXyoxq_EFlNC-47" value="1..*" style="edgeLabel;resizable=0;html=1;align=right;verticalAlign=bottom;" connectable="0" vertex="1" parent="VvfFfn8iIXyoxq_EFlNC-45">
          <mxGeometry x="1" relative="1" as="geometry">
            <mxPoint x="-6" as="offset" />
          </mxGeometry>
        </mxCell>
        <mxCell id="VvfFfn8iIXyoxq_EFlNC-48" value="eligibilité" style="swimlane;fontStyle=0;childLayout=stackLayout;horizontal=1;startSize=26;fillColor=none;horizontalStack=0;resizeParent=1;resizeParentMax=0;resizeLast=0;collapsible=1;marginBottom=0;whiteSpace=wrap;html=1;" vertex="1" parent="1">
          <mxGeometry x="420" y="-560" width="261" height="728" as="geometry" />
        </mxCell>
        <mxCell id="VvfFfn8iIXyoxq_EFlNC-49" value="- Montant_net_max: Integer" style="text;strokeColor=none;fillColor=none;align=left;verticalAlign=top;spacingLeft=4;spacingRight=4;overflow=hidden;rotatable=0;points=[[0,0.5],[1,0.5]];portConstraint=eastwest;whiteSpace=wrap;html=1;" vertex="1" parent="VvfFfn8iIXyoxq_EFlNC-48">
          <mxGeometry y="26" width="261" height="26" as="geometry" />
        </mxCell>
        <mxCell id="VvfFfn8iIXyoxq_EFlNC-50" value="- Maturité_max: Integer" style="text;strokeColor=none;fillColor=none;align=left;verticalAlign=top;spacingLeft=4;spacingRight=4;overflow=hidden;rotatable=0;points=[[0,0.5],[1,0.5]];portConstraint=eastwest;whiteSpace=wrap;html=1;" vertex="1" parent="VvfFfn8iIXyoxq_EFlNC-48">
          <mxGeometry y="52" width="261" height="26" as="geometry" />
        </mxCell>
        <mxCell id="VvfFfn8iIXyoxq_EFlNC-51" value="- codeb: type" style="text;strokeColor=none;fillColor=none;align=left;verticalAlign=top;spacingLeft=4;spacingRight=4;overflow=hidden;rotatable=0;points=[[0,0.5],[1,0.5]];portConstraint=eastwest;whiteSpace=wrap;html=1;" vertex="1" parent="VvfFfn8iIXyoxq_EFlNC-48">
          <mxGeometry y="78" width="261" height="26" as="geometry" />
        </mxCell>
        <mxCell id="VvfFfn8iIXyoxq_EFlNC-52" value="- echeance: float" style="text;strokeColor=none;fillColor=none;align=left;verticalAlign=top;spacingLeft=4;spacingRight=4;overflow=hidden;rotatable=0;points=[[0,0.5],[1,0.5]];portConstraint=eastwest;whiteSpace=wrap;html=1;" vertex="1" parent="VvfFfn8iIXyoxq_EFlNC-48">
          <mxGeometry y="104" width="261" height="26" as="geometry" />
        </mxCell>
        <mxCell id="VvfFfn8iIXyoxq_EFlNC-53" value="- montant_net_DC: float" style="text;strokeColor=none;fillColor=none;align=left;verticalAlign=top;spacingLeft=4;spacingRight=4;overflow=hidden;rotatable=0;points=[[0,0.5],[1,0.5]];portConstraint=eastwest;whiteSpace=wrap;html=1;" vertex="1" parent="VvfFfn8iIXyoxq_EFlNC-48">
          <mxGeometry y="130" width="261" height="26" as="geometry" />
        </mxCell>
        <mxCell id="VvfFfn8iIXyoxq_EFlNC-54" value="- montant_DC: Integer" style="text;strokeColor=none;fillColor=none;align=left;verticalAlign=top;spacingLeft=4;spacingRight=4;overflow=hidden;rotatable=0;points=[[0,0.5],[1,0.5]];portConstraint=eastwest;whiteSpace=wrap;html=1;" vertex="1" parent="VvfFfn8iIXyoxq_EFlNC-48">
          <mxGeometry y="156" width="261" height="26" as="geometry" />
        </mxCell>
        <mxCell id="VvfFfn8iIXyoxq_EFlNC-55" value="- en_cours: float" style="text;strokeColor=none;fillColor=none;align=left;verticalAlign=top;spacingLeft=4;spacingRight=4;overflow=hidden;rotatable=0;points=[[0,0.5],[1,0.5]];portConstraint=eastwest;whiteSpace=wrap;html=1;" vertex="1" parent="VvfFfn8iIXyoxq_EFlNC-48">
          <mxGeometry y="182" width="261" height="26" as="geometry" />
        </mxCell>
        <mxCell id="VvfFfn8iIXyoxq_EFlNC-56" value="- capital_payé: Integer" style="text;strokeColor=none;fillColor=none;align=left;verticalAlign=top;spacingLeft=4;spacingRight=4;overflow=hidden;rotatable=0;points=[[0,0.5],[1,0.5]];portConstraint=eastwest;whiteSpace=wrap;html=1;" vertex="1" parent="VvfFfn8iIXyoxq_EFlNC-48">
          <mxGeometry y="208" width="261" height="26" as="geometry" />
        </mxCell>
        <mxCell id="VvfFfn8iIXyoxq_EFlNC-57" value="- echeance_DC: float" style="text;strokeColor=none;fillColor=none;align=left;verticalAlign=top;spacingLeft=4;spacingRight=4;overflow=hidden;rotatable=0;points=[[0,0.5],[1,0.5]];portConstraint=eastwest;whiteSpace=wrap;html=1;" vertex="1" parent="VvfFfn8iIXyoxq_EFlNC-48">
          <mxGeometry y="234" width="261" height="26" as="geometry" />
        </mxCell>
        <mxCell id="VvfFfn8iIXyoxq_EFlNC-58" value="- echeance_max: float" style="text;strokeColor=none;fillColor=none;align=left;verticalAlign=top;spacingLeft=4;spacingRight=4;overflow=hidden;rotatable=0;points=[[0,0.5],[1,0.5]];portConstraint=eastwest;whiteSpace=wrap;html=1;" vertex="1" parent="VvfFfn8iIXyoxq_EFlNC-48">
          <mxGeometry y="260" width="261" height="26" as="geometry" />
        </mxCell>
        <mxCell id="VvfFfn8iIXyoxq_EFlNC-59" value="- taux_interet: float" style="text;strokeColor=none;fillColor=none;align=left;verticalAlign=top;spacingLeft=4;spacingRight=4;overflow=hidden;rotatable=0;points=[[0,0.5],[1,0.5]];portConstraint=eastwest;whiteSpace=wrap;html=1;" vertex="1" parent="VvfFfn8iIXyoxq_EFlNC-48">
          <mxGeometry y="286" width="261" height="26" as="geometry" />
        </mxCell>
        <mxCell id="VvfFfn8iIXyoxq_EFlNC-60" value="- moyen_de_retard: float" style="text;strokeColor=none;fillColor=none;align=left;verticalAlign=top;spacingLeft=4;spacingRight=4;overflow=hidden;rotatable=0;points=[[0,0.5],[1,0.5]];portConstraint=eastwest;whiteSpace=wrap;html=1;" vertex="1" parent="VvfFfn8iIXyoxq_EFlNC-48">
          <mxGeometry y="312" width="261" height="26" as="geometry" />
        </mxCell>
        <mxCell id="VvfFfn8iIXyoxq_EFlNC-61" value="- nombre_de_credit_fini: integer" style="text;strokeColor=none;fillColor=none;align=left;verticalAlign=top;spacingLeft=4;spacingRight=4;overflow=hidden;rotatable=0;points=[[0,0.5],[1,0.5]];portConstraint=eastwest;whiteSpace=wrap;html=1;" vertex="1" parent="VvfFfn8iIXyoxq_EFlNC-48">
          <mxGeometry y="338" width="261" height="26" as="geometry" />
        </mxCell>
        <mxCell id="VvfFfn8iIXyoxq_EFlNC-62" value="- status_de_credit: String" style="text;strokeColor=none;fillColor=none;align=left;verticalAlign=top;spacingLeft=4;spacingRight=4;overflow=hidden;rotatable=0;points=[[0,0.5],[1,0.5]];portConstraint=eastwest;whiteSpace=wrap;html=1;" vertex="1" parent="VvfFfn8iIXyoxq_EFlNC-48">
          <mxGeometry y="364" width="261" height="26" as="geometry" />
        </mxCell>
        <mxCell id="VvfFfn8iIXyoxq_EFlNC-63" value="- risk_value: integer" style="text;strokeColor=none;fillColor=none;align=left;verticalAlign=top;spacingLeft=4;spacingRight=4;overflow=hidden;rotatable=0;points=[[0,0.5],[1,0.5]];portConstraint=eastwest;whiteSpace=wrap;html=1;" vertex="1" parent="VvfFfn8iIXyoxq_EFlNC-48">
          <mxGeometry y="390" width="261" height="26" as="geometry" />
        </mxCell>
        <mxCell id="VvfFfn8iIXyoxq_EFlNC-64" value="- risk_group: integer" style="text;strokeColor=none;fillColor=none;align=left;verticalAlign=top;spacingLeft=4;spacingRight=4;overflow=hidden;rotatable=0;points=[[0,0.5],[1,0.5]];portConstraint=eastwest;whiteSpace=wrap;html=1;" vertex="1" parent="VvfFfn8iIXyoxq_EFlNC-48">
          <mxGeometry y="416" width="261" height="26" as="geometry" />
        </mxCell>
        <mxCell id="VvfFfn8iIXyoxq_EFlNC-65" value="- cautions: String" style="text;strokeColor=none;fillColor=none;align=left;verticalAlign=top;spacingLeft=4;spacingRight=4;overflow=hidden;rotatable=0;points=[[0,0.5],[1,0.5]];portConstraint=eastwest;whiteSpace=wrap;html=1;" vertex="1" parent="VvfFfn8iIXyoxq_EFlNC-48">
          <mxGeometry y="442" width="261" height="26" as="geometry" />
        </mxCell>
        <mxCell id="VvfFfn8iIXyoxq_EFlNC-66" value="- total_natissements: float" style="text;strokeColor=none;fillColor=none;align=left;verticalAlign=top;spacingLeft=4;spacingRight=4;overflow=hidden;rotatable=0;points=[[0,0.5],[1,0.5]];portConstraint=eastwest;whiteSpace=wrap;html=1;" vertex="1" parent="VvfFfn8iIXyoxq_EFlNC-48">
          <mxGeometry y="468" width="261" height="26" as="geometry" />
        </mxCell>
        <mxCell id="VvfFfn8iIXyoxq_EFlNC-67" value="- nantissement_par_montant_max: integer" style="text;strokeColor=none;fillColor=none;align=left;verticalAlign=top;spacingLeft=4;spacingRight=4;overflow=hidden;rotatable=0;points=[[0,0.5],[1,0.5]];portConstraint=eastwest;whiteSpace=wrap;html=1;" vertex="1" parent="VvfFfn8iIXyoxq_EFlNC-48">
          <mxGeometry y="494" width="261" height="26" as="geometry" />
        </mxCell>
        <mxCell id="VvfFfn8iIXyoxq_EFlNC-68" value="- dernier_payement: date" style="text;strokeColor=none;fillColor=none;align=left;verticalAlign=top;spacingLeft=4;spacingRight=4;overflow=hidden;rotatable=0;points=[[0,0.5],[1,0.5]];portConstraint=eastwest;whiteSpace=wrap;html=1;" vertex="1" parent="VvfFfn8iIXyoxq_EFlNC-48">
          <mxGeometry y="520" width="261" height="26" as="geometry" />
        </mxCell>
        <mxCell id="VvfFfn8iIXyoxq_EFlNC-69" value="- motif_validation: String" style="text;strokeColor=none;fillColor=none;align=left;verticalAlign=top;spacingLeft=4;spacingRight=4;overflow=hidden;rotatable=0;points=[[0,0.5],[1,0.5]];portConstraint=eastwest;whiteSpace=wrap;html=1;" vertex="1" parent="VvfFfn8iIXyoxq_EFlNC-48">
          <mxGeometry y="546" width="261" height="26" as="geometry" />
        </mxCell>
        <mxCell id="VvfFfn8iIXyoxq_EFlNC-70" value="- Rang_credit: Integer" style="text;strokeColor=none;fillColor=none;align=left;verticalAlign=top;spacingLeft=4;spacingRight=4;overflow=hidden;rotatable=0;points=[[0,0.5],[1,0.5]];portConstraint=eastwest;whiteSpace=wrap;html=1;" vertex="1" parent="VvfFfn8iIXyoxq_EFlNC-48">
          <mxGeometry y="572" width="261" height="26" as="geometry" />
        </mxCell>
        <mxCell id="VvfFfn8iIXyoxq_EFlNC-71" value="- maturité_dernier_credit: Integer" style="text;strokeColor=none;fillColor=none;align=left;verticalAlign=top;spacingLeft=4;spacingRight=4;overflow=hidden;rotatable=0;points=[[0,0.5],[1,0.5]];portConstraint=eastwest;whiteSpace=wrap;html=1;" vertex="1" parent="VvfFfn8iIXyoxq_EFlNC-48">
          <mxGeometry y="598" width="261" height="26" as="geometry" />
        </mxCell>
        <mxCell id="VvfFfn8iIXyoxq_EFlNC-72" value="- maturité_min_reel: Integer" style="text;strokeColor=none;fillColor=none;align=left;verticalAlign=top;spacingLeft=4;spacingRight=4;overflow=hidden;rotatable=0;points=[[0,0.5],[1,0.5]];portConstraint=eastwest;whiteSpace=wrap;html=1;" vertex="1" parent="VvfFfn8iIXyoxq_EFlNC-48">
          <mxGeometry y="624" width="261" height="26" as="geometry" />
        </mxCell>
        <mxCell id="VvfFfn8iIXyoxq_EFlNC-73" value="- echeance_maturite_min_reel: float" style="text;strokeColor=none;fillColor=none;align=left;verticalAlign=top;spacingLeft=4;spacingRight=4;overflow=hidden;rotatable=0;points=[[0,0.5],[1,0.5]];portConstraint=eastwest;whiteSpace=wrap;html=1;" vertex="1" parent="VvfFfn8iIXyoxq_EFlNC-48">
          <mxGeometry y="650" width="261" height="26" as="geometry" />
        </mxCell>
        <mxCell id="VvfFfn8iIXyoxq_EFlNC-74" value="- montant_net_maturite_min_reel: float" style="text;strokeColor=none;fillColor=none;align=left;verticalAlign=top;spacingLeft=4;spacingRight=4;overflow=hidden;rotatable=0;points=[[0,0.5],[1,0.5]];portConstraint=eastwest;whiteSpace=wrap;html=1;" vertex="1" parent="VvfFfn8iIXyoxq_EFlNC-48">
          <mxGeometry y="676" width="261" height="26" as="geometry" />
        </mxCell>
        <mxCell id="VvfFfn8iIXyoxq_EFlNC-75" value="- lampe: float" style="text;strokeColor=none;fillColor=none;align=left;verticalAlign=top;spacingLeft=4;spacingRight=4;overflow=hidden;rotatable=0;points=[[0,0.5],[1,0.5]];portConstraint=eastwest;whiteSpace=wrap;html=1;" vertex="1" parent="VvfFfn8iIXyoxq_EFlNC-48">
          <mxGeometry y="702" width="261" height="26" as="geometry" />
        </mxCell>
        <mxCell id="VvfFfn8iIXyoxq_EFlNC-76" value="" style="endArrow=none;dashed=1;html=1;dashPattern=1 4;strokeWidth=1;rounded=0;jumpSize=2;endSize=2;startSize=5;" edge="1" parent="1" source="VvfFfn8iIXyoxq_EFlNC-48">
          <mxGeometry width="50" height="50" relative="1" as="geometry">
            <mxPoint x="350" y="500" as="sourcePoint" />
            <mxPoint x="550" y="310" as="targetPoint" />
          </mxGeometry>
        </mxCell>
        <mxCell id="VvfFfn8iIXyoxq_EFlNC-77" value="" style="endArrow=none;html=1;edgeStyle=orthogonalEdgeStyle;rounded=0;" edge="1" parent="1" source="VvfFfn8iIXyoxq_EFlNC-113" target="VvfFfn8iIXyoxq_EFlNC-20">
          <mxGeometry relative="1" as="geometry">
            <mxPoint x="410" y="480" as="sourcePoint" />
            <mxPoint x="510" y="420" as="targetPoint" />
            <Array as="points">
              <mxPoint x="340" y="480" />
            </Array>
          </mxGeometry>
        </mxCell>
        <mxCell id="VvfFfn8iIXyoxq_EFlNC-97" value="" style="endArrow=none;html=1;edgeStyle=orthogonalEdgeStyle;rounded=0;" edge="1" parent="1" source="VvfFfn8iIXyoxq_EFlNC-1" target="VvfFfn8iIXyoxq_EFlNC-113">
          <mxGeometry relative="1" as="geometry">
            <mxPoint x="170" y="780" as="sourcePoint" />
            <mxPoint x="410" y="477" as="targetPoint" />
            <Array as="points">
              <mxPoint x="290" y="420" />
              <mxPoint x="454" y="420" />
            </Array>
          </mxGeometry>
        </mxCell>
        <mxCell id="VvfFfn8iIXyoxq_EFlNC-99" value="" style="endArrow=none;html=1;edgeStyle=orthogonalEdgeStyle;rounded=0;" edge="1" parent="1" source="VvfFfn8iIXyoxq_EFlNC-113" target="VvfFfn8iIXyoxq_EFlNC-12">
          <mxGeometry relative="1" as="geometry">
            <mxPoint x="510" y="451" as="sourcePoint" />
            <mxPoint x="640" y="430" as="targetPoint" />
            <Array as="points">
              <mxPoint x="510" y="480" />
              <mxPoint x="510" y="370" />
            </Array>
          </mxGeometry>
        </mxCell>
        <mxCell id="VvfFfn8iIXyoxq_EFlNC-100" value="1" style="edgeLabel;resizable=0;html=1;align=right;verticalAlign=bottom;" connectable="0" vertex="1" parent="VvfFfn8iIXyoxq_EFlNC-99">
          <mxGeometry x="1" relative="1" as="geometry">
            <mxPoint x="-6" as="offset" />
          </mxGeometry>
        </mxCell>
        <mxCell id="VvfFfn8iIXyoxq_EFlNC-102" value="1..*" style="edgeLabel;resizable=0;html=1;align=right;verticalAlign=bottom;" connectable="0" vertex="1" parent="VvfFfn8iIXyoxq_EFlNC-99">
          <mxGeometry x="1" relative="1" as="geometry">
            <mxPoint x="-305" y="40" as="offset" />
          </mxGeometry>
        </mxCell>
        <mxCell id="VvfFfn8iIXyoxq_EFlNC-103" value="1..*" style="edgeLabel;resizable=0;html=1;align=right;verticalAlign=bottom;" connectable="0" vertex="1" parent="VvfFfn8iIXyoxq_EFlNC-99">
          <mxGeometry x="1" relative="1" as="geometry">
            <mxPoint x="-255" y="190" as="offset" />
          </mxGeometry>
        </mxCell>
        <mxCell id="VvfFfn8iIXyoxq_EFlNC-104" value="Notification" style="swimlane;fontStyle=0;childLayout=stackLayout;horizontal=1;startSize=26;fillColor=none;horizontalStack=0;resizeParent=1;resizeParentMax=0;resizeLast=0;collapsible=1;marginBottom=0;whiteSpace=wrap;html=1;" vertex="1" parent="1">
          <mxGeometry x="80" y="716" width="170" height="156" as="geometry" />
        </mxCell>
        <mxCell id="VvfFfn8iIXyoxq_EFlNC-105" value="&amp;nbsp;- type: String" style="text;strokeColor=none;fillColor=none;align=left;verticalAlign=top;spacingLeft=4;spacingRight=4;overflow=hidden;rotatable=0;points=[[0,0.5],[1,0.5]];portConstraint=eastwest;whiteSpace=wrap;html=1;" vertex="1" parent="VvfFfn8iIXyoxq_EFlNC-104">
          <mxGeometry y="26" width="170" height="26" as="geometry" />
        </mxCell>
        <mxCell id="VvfFfn8iIXyoxq_EFlNC-106" value="&amp;nbsp;- date_creation: datetime" style="text;strokeColor=none;fillColor=none;align=left;verticalAlign=top;spacingLeft=4;spacingRight=4;overflow=hidden;rotatable=0;points=[[0,0.5],[1,0.5]];portConstraint=eastwest;whiteSpace=wrap;html=1;" vertex="1" parent="VvfFfn8iIXyoxq_EFlNC-104">
          <mxGeometry y="52" width="170" height="26" as="geometry" />
        </mxCell>
        <mxCell id="VvfFfn8iIXyoxq_EFlNC-107" value="&amp;nbsp;- priorité: String" style="text;strokeColor=none;fillColor=none;align=left;verticalAlign=top;spacingLeft=4;spacingRight=4;overflow=hidden;rotatable=0;points=[[0,0.5],[1,0.5]];portConstraint=eastwest;whiteSpace=wrap;html=1;" vertex="1" parent="VvfFfn8iIXyoxq_EFlNC-104">
          <mxGeometry y="78" width="170" height="26" as="geometry" />
        </mxCell>
        <mxCell id="VvfFfn8iIXyoxq_EFlNC-108" value="&amp;nbsp;- contenu: String" style="text;strokeColor=none;fillColor=none;align=left;verticalAlign=top;spacingLeft=4;spacingRight=4;overflow=hidden;rotatable=0;points=[[0,0.5],[1,0.5]];portConstraint=eastwest;whiteSpace=wrap;html=1;" vertex="1" parent="VvfFfn8iIXyoxq_EFlNC-104">
          <mxGeometry y="104" width="170" height="26" as="geometry" />
        </mxCell>
        <mxCell id="VvfFfn8iIXyoxq_EFlNC-109" value="&amp;nbsp;- lu: Boolean" style="text;strokeColor=none;fillColor=none;align=left;verticalAlign=top;spacingLeft=4;spacingRight=4;overflow=hidden;rotatable=0;points=[[0,0.5],[1,0.5]];portConstraint=eastwest;whiteSpace=wrap;html=1;" vertex="1" parent="VvfFfn8iIXyoxq_EFlNC-104">
          <mxGeometry y="130" width="170" height="26" as="geometry" />
        </mxCell>
        <mxCell id="VvfFfn8iIXyoxq_EFlNC-110" value="" style="endArrow=none;html=1;edgeStyle=orthogonalEdgeStyle;rounded=0;" edge="1" parent="1" source="VvfFfn8iIXyoxq_EFlNC-16" target="VvfFfn8iIXyoxq_EFlNC-104">
          <mxGeometry relative="1" as="geometry">
            <mxPoint x="160" y="404" as="sourcePoint" />
            <mxPoint x="280" y="625" as="targetPoint" />
            <Array as="points">
              <mxPoint x="120" y="670" />
              <mxPoint x="120" y="670" />
            </Array>
          </mxGeometry>
        </mxCell>
        <mxCell id="VvfFfn8iIXyoxq_EFlNC-111" value="1" style="edgeLabel;resizable=0;html=1;align=left;verticalAlign=bottom;" connectable="0" vertex="1" parent="VvfFfn8iIXyoxq_EFlNC-110">
          <mxGeometry x="-1" relative="1" as="geometry">
            <mxPoint y="16" as="offset" />
          </mxGeometry>
        </mxCell>
        <mxCell id="VvfFfn8iIXyoxq_EFlNC-112" value="0..*" style="edgeLabel;resizable=0;html=1;align=right;verticalAlign=bottom;" connectable="0" vertex="1" parent="VvfFfn8iIXyoxq_EFlNC-110">
          <mxGeometry x="1" relative="1" as="geometry">
            <mxPoint x="20" as="offset" />
          </mxGeometry>
        </mxCell>
        <mxCell id="VvfFfn8iIXyoxq_EFlNC-113" value="" style="rhombus;whiteSpace=wrap;html=1;" vertex="1" parent="1">
          <mxGeometry x="414" y="440" width="80" height="80" as="geometry" />
        </mxCell>
      </root>
    </mxGraphModel>
  </diagram>
</mxfile>
